<mxfile host="app.diagrams.net" modified="2023-06-03T12:28:32.031Z" agent="Mozilla/5.0 (Macintosh; Intel Mac OS X 10_15_7) AppleWebKit/537.36 (KHTML, like Gecko) Chrome/113.0.0.0 Safari/537.36" version="21.3.7" etag="z5Qh8sSj1iEUz1519saN" type="github">
  <diagram name="페이지-1" id="pQNdBUuWqMWrZ43ooCdo">
    <mxGraphModel>
      <root>
        <mxCell id="0" />
        <mxCell id="1" parent="0" />
      </root>
    </mxGraphModel>
  </diagram>
</mxfile>
